<svg xmlns="http://www.w3.org/2000/svg" width="14.512" height="18.304" viewBox="0 0 14.512 18.304">
  <path id="calory" d="M32.8,21.327a8.1,8.1,0,0,0-2.938-6.13L29.622,15a.565.565,0,0,0-.864.186,16.841,16.841,0,0,0-.129,2.037c0,.055-.011.144-.01.154a.377.377,0,0,1-.44.371.394.394,0,0,1-.313-.394,7.826,7.826,0,0,0-2.394-6.1c-.943-.876-2.058-1.649-2.4-1.045-.087.154.057.5.2.943.322.986-.662,2.561-2.053,4.135-1.307,1.479-2.935,3.321-2.935,6.034A7.4,7.4,0,0,0,25.543,28.3,7.4,7.4,0,0,0,32.8,21.327Z" transform="translate(-18.287 -10)" fill="#ff5656"/>
</svg>
