<svg xmlns="http://www.w3.org/2000/svg" width="13" height="13" viewBox="0 0 13 13">
  <path id="checout-bag" d="M10.605,13H2.395A2.4,2.4,0,0,1,0,10.606L.929,2.394A2.4,2.4,0,0,1,3.323,0H9.677a2.4,2.4,0,0,1,2.394,2.394L13,10.606A2.4,2.4,0,0,1,10.605,13ZM4.106,2.723a.981.981,0,0,0-.839.49.962.962,0,0,0-.008.965,3.716,3.716,0,0,0,6.481,0,.962.962,0,0,0-.008-.966.98.98,0,0,0-.839-.49,1.008,1.008,0,0,0-.244.031l-.389.1A7.262,7.262,0,0,1,6.5,3.067,7.262,7.262,0,0,1,4.739,2.85l-.389-.1A1.008,1.008,0,0,0,4.106,2.723Z" fill="#45434d"/>
</svg>
