<svg xmlns="http://www.w3.org/2000/svg" xmlns:xlink="http://www.w3.org/1999/xlink" width="100" height="100" viewBox="0 0 100 100">
  <defs>
    <linearGradient id="linear-gradient" x1="0.286" y1="0.286" x2="0.75" y2="0.75" gradientUnits="objectBoundingBox">
      <stop offset="0" stop-color="#537983"/>
      <stop offset="1" stop-color="#3e5959"/>
    </linearGradient>
    <linearGradient id="linear-gradient-2" x1="-5.45" y1="-12.884" x2="-4.987" y2="-12.42" xlink:href="#linear-gradient"/>
    <linearGradient id="linear-gradient-3" x1="0.295" y1="0.295" x2="0.64" y2="0.64" gradientUnits="objectBoundingBox">
      <stop offset="0" stop-color="#fff"/>
      <stop offset="1" stop-color="#eef5f6"/>
    </linearGradient>
    <linearGradient id="linear-gradient-4" x1="0.508" y1="0.572" x2="-0.505" y2="0.111" gradientUnits="objectBoundingBox">
      <stop offset="0" stop-color="#3e5959" stop-opacity="0"/>
      <stop offset="0.815" stop-color="#394c4c" stop-opacity="0.816"/>
      <stop offset="1" stop-color="#384949"/>
    </linearGradient>
    <linearGradient id="linear-gradient-5" x1="0.299" y1="0.382" x2="0.781" y2="0.863" gradientUnits="objectBoundingBox">
      <stop offset="0" stop-color="#ffe177"/>
      <stop offset="1" stop-color="#fe9738"/>
    </linearGradient>
    <linearGradient id="linear-gradient-6" x1="0" y1="0.5" x2="1" y2="0.5" xlink:href="#linear-gradient-5"/>
    <linearGradient id="linear-gradient-7" x1="0.286" y1="0.286" x2="0.75" y2="0.75" gradientUnits="objectBoundingBox">
      <stop offset="0" stop-color="#fe99a0"/>
      <stop offset="1" stop-color="#fd4755"/>
    </linearGradient>
  </defs>
  <g id="clock" transform="translate(0 -91.162)">
    <g id="Groupe_172" data-name="Groupe 172" transform="translate(0 91.162)">
      <ellipse id="Ellipse_34" data-name="Ellipse 34" cx="50" cy="50" rx="50" ry="50" transform="translate(0 0)" fill="url(#linear-gradient)"/>
      <ellipse id="Ellipse_35" data-name="Ellipse 35" cx="46.174" cy="46.174" rx="46.174" ry="46.174" transform="translate(3.826 3.826)" fill="url(#linear-gradient-2)"/>
      <ellipse id="Ellipse_36" data-name="Ellipse 36" cx="42.061" cy="42.061" rx="42.061" ry="42.061" transform="translate(7.939 7.939)" fill="url(#linear-gradient-3)"/>
      <path id="Tracé_165" data-name="Tracé 165" d="M160.795,165.207l-38.106-40.555a1.236,1.236,0,0,0-2.133,0l-4.985,8.039a1.366,1.366,0,0,0,1.023,2.105,1.319,1.319,0,0,0,1.233,1.312,1.434,1.434,0,0,0,.076.418v21.759a7.8,7.8,0,0,0-3.51,6.6,8.145,8.145,0,0,0,.34,2.337l-6.022,6.409-.895-.952a1.255,1.255,0,0,0-2.155.689l-1.816,9.436a1.342,1.342,0,0,0,1.209,1.631l20.569,21.89C145.184,204.021,160.447,186.55,160.795,165.207Z" transform="translate(-68.742 -114.506)" fill="url(#linear-gradient-4)"/>
      <g id="Groupe_171" data-name="Groupe 171" transform="translate(12.335 12.335)">
        <g id="Groupe_167" data-name="Groupe 167">
          <g id="Groupe_165" data-name="Groupe 165" transform="translate(33.929)">
            <path id="Tracé_166" data-name="Tracé 166" d="M154.692,145.835a3.736,3.736,0,0,1-3.736-3.736v-4.67a3.736,3.736,0,1,1,7.472,0v4.67A3.736,3.736,0,0,1,154.692,145.835Z" transform="translate(-150.956 -133.693)" fill="#bccbd3"/>
            <path id="Tracé_167" data-name="Tracé 167" d="M154.692,346.582a3.736,3.736,0,0,1-3.736-3.736v-4.67a3.736,3.736,0,0,1,7.472,0v4.67A3.736,3.736,0,0,1,154.692,346.582Z" transform="translate(-150.956 -271.252)" fill="#bccbd3"/>
          </g>
          <g id="Groupe_166" data-name="Groupe 166" transform="translate(0 33.929)">
            <path id="Tracé_168" data-name="Tracé 168" d="M243.278,245.854a3.736,3.736,0,0,1,3.736-3.736h4.67a3.736,3.736,0,1,1,0,7.472h-4.67A3.736,3.736,0,0,1,243.278,245.854Z" transform="translate(-180.09 -242.118)" fill="#bccbd3"/>
            <path id="Tracé_169" data-name="Tracé 169" d="M42.531,245.854a3.736,3.736,0,0,1,3.736-3.736h4.67a3.736,3.736,0,0,1,0,7.472h-4.67a3.736,3.736,0,0,1-3.736-3.736Z" transform="translate(-42.531 -242.118)" fill="#bccbd3"/>
          </g>
        </g>
        <g id="Groupe_170" data-name="Groupe 170" transform="translate(9.21 9.21)">
          <g id="Groupe_168" data-name="Groupe 168">
            <path id="Tracé_170" data-name="Tracé 170" d="M217.332,175.13a3.736,3.736,0,0,1,0-5.284l3.3-3.3a3.736,3.736,0,0,1,5.284,5.284l-3.3,3.3A3.736,3.736,0,0,1,217.332,175.13Z" transform="translate(-170.102 -165.45)" fill="#bccbd3"/>
            <path id="Tracé_171" data-name="Tracé 171" d="M75.382,317.08a3.736,3.736,0,0,1,0-5.284l3.3-3.3a3.736,3.736,0,0,1,5.284,5.284l-3.3,3.3A3.736,3.736,0,0,1,75.382,317.08Z" transform="translate(-74.288 -261.264)" fill="#bccbd3"/>
          </g>
          <g id="Groupe_169" data-name="Groupe 169" transform="translate(0 0)">
            <path id="Tracé_172" data-name="Tracé 172" d="M217.332,308.494a3.736,3.736,0,0,1,5.284,0l3.3,3.3a3.736,3.736,0,0,1-5.284,5.284l-3.3-3.3A3.736,3.736,0,0,1,217.332,308.494Z" transform="translate(-170.102 -261.264)" fill="#bccbd3"/>
            <path id="Tracé_173" data-name="Tracé 173" d="M75.382,166.544a3.736,3.736,0,0,1,5.284,0l3.3,3.3a3.736,3.736,0,1,1-5.284,5.284l-3.3-3.3A3.736,3.736,0,0,1,75.382,166.544Z" transform="translate(-74.288 -165.45)" fill="#bccbd3"/>
          </g>
        </g>
      </g>
    </g>
    <path id="Tracé_174" data-name="Tracé 174" d="M103.986,266.443l8.866-1.816a1.277,1.277,0,0,0,.647-2.155l-.895-.895L123.28,250.9a1.23,1.23,0,0,0,0-1.739l-3.521-3.521a1.23,1.23,0,0,0-1.739,0l-10.676,10.676-.895-.895a1.277,1.277,0,0,0-2.155.647l-1.816,8.866A1.277,1.277,0,0,0,103.986,266.443Z" transform="translate(-70.74 -106.415)" fill="url(#linear-gradient-5)"/>
    <path id="Tracé_175" data-name="Tracé 175" d="M147.435,123.25l-4.985,7.554a1.277,1.277,0,0,0,1.066,1.981h1.265v26.594a1.23,1.23,0,0,0,1.23,1.23h4.98a1.23,1.23,0,0,0,1.23-1.23V132.785h1.265a1.277,1.277,0,0,0,1.066-1.981l-4.985-7.554A1.277,1.277,0,0,0,147.435,123.25Z" transform="translate(-98.501 -22.375)" fill="url(#linear-gradient-6)"/>
    <circle id="Ellipse_37" data-name="Ellipse 37" cx="7.23" cy="7.23" r="7.23" transform="translate(42.77 133.932)" fill="url(#linear-gradient-7)"/>
  </g>
</svg>
