<svg id="d98136f2-2bdf-4149-a70a-ec0867d96ae0" data-name="Calque 1" xmlns="http://www.w3.org/2000/svg" width="160" height="160" viewBox="0 0 56 56"><title>emptystate</title><ellipse cx="28.3" cy="41.46" rx="18.93" ry="1.71" style="fill:#fafbfd"/><g id="61d4428c-eb73-4b84-bd68-3c09c9755ed1" data-name="Bag"><path d="M35.31,41.47h-14a4.09,4.09,0,0,1-4.09-4.09l1.58-14a4.09,4.09,0,0,1,4.09-4.09H33.72a4.09,4.09,0,0,1,4.09,4.09l1.59,14A4.1,4.1,0,0,1,35.31,41.47ZM24.21,23.92a1.68,1.68,0,0,0-1.44.84,1.65,1.65,0,0,0,0,1.65,6.35,6.35,0,0,0,8.64,2.43,6.44,6.44,0,0,0,2.43-2.43,1.65,1.65,0,0,0,0-1.65,1.69,1.69,0,0,0-1.44-.84A1.84,1.84,0,0,0,32,24l-.67.17a12.39,12.39,0,0,1-6,0L24.62,24a1.84,1.84,0,0,0-.41,0Z" style="fill:#e7ecf2"/></g><g style="opacity:0.7000000000000001"><circle cx="40.24" cy="15.38" r="0.72" style="fill:#dde4ed"/><circle cx="13.5" cy="15.09" r="0.72" style="fill:#dde4ed"/><path d="M28.62,11.39a.34.34,0,0,0-.34.33v4.56a.34.34,0,1,0,.68,0V11.72A.33.33,0,0,0,28.62,11.39Z" style="fill:#dde4ed"/><path d="M23.76,12.9a.35.35,0,0,0-.47-.12.36.36,0,0,0-.11.48l1.53,2.6A.33.33,0,0,0,25,16a.65.65,0,0,0,.18,0,.37.37,0,0,0,.11-.48Z" style="fill:#dde4ed"/><path d="M34.28,13.78l-2.16,2.44a.32.32,0,0,0,0,.47.27.27,0,0,0,.22.09.33.33,0,0,0,.25-.11l2.17-2.44a.32.32,0,0,0,0-.47A.31.31,0,0,0,34.28,13.78Z" style="fill:#dde4ed"/><path d="M26.13,1a2.24,2.24,0,1,0,2.24,2.24A2.24,2.24,0,0,0,26.13,1Zm0,3.82a1.56,1.56,0,1,1,1.56-1.56A1.56,1.56,0,0,1,26.13,4.82Z" style="fill:#dde4ed"/><path d="M33.18,9.06a1.36,1.36,0,1,0-1.36-1.35A1.38,1.38,0,0,0,33.18,9.06Zm0-2a.68.68,0,0,1,0,1.35.66.66,0,0,1-.68-.67A.71.71,0,0,1,33.18,7Z" style="fill:#dde4ed"/><path d="M17.92,9.16h-.86V8.3a.34.34,0,0,0-.68,0v.86H15.5a.34.34,0,0,0-.34.34.33.33,0,0,0,.34.33h.86v.86a.34.34,0,1,0,.68,0V9.83h.85a.34.34,0,0,0,.34-.33A.32.32,0,0,0,17.92,9.16Z" style="fill:#dde4ed"/><path d="M41.26,7.07H39.84V5.65a.34.34,0,1,0-.68,0V7.07H37.74a.34.34,0,0,0,0,.68h1.42V9.17a.34.34,0,1,0,.68,0V7.75h1.42a.34.34,0,1,0,0-.68Z" style="fill:#dde4ed"/><path d="M19,15.79h-.39V15.4a.34.34,0,0,0-.67,0v.39h-.39a.35.35,0,0,0-.34.34.34.34,0,0,0,.34.33h.39v.39a.34.34,0,1,0,.67,0v-.39H19a.34.34,0,0,0,.34-.33A.35.35,0,0,0,19,15.79Z" style="fill:#dde4ed"/></g><path d="M8.8,50.45,7.69,52.1v1.48a.26.26,0,0,1-.07.19.21.21,0,0,1-.17.07.23.23,0,0,1-.17-.07.26.26,0,0,1-.07-.19V52.05L6.1,50.49a.32.32,0,0,1-.07-.2.25.25,0,0,1,.08-.18A.29.29,0,0,1,6.29,50a.23.23,0,0,1,.2.12l1,1.41.93-1.41a.23.23,0,0,1,.38,0,.24.24,0,0,1,.07.18A.33.33,0,0,1,8.8,50.45Z" style="fill:#bebfc5"/><path d="M11.47,53.18a1.32,1.32,0,0,1-.49.53,1.35,1.35,0,0,1-1.38,0,1.32,1.32,0,0,1-.49-.53,1.69,1.69,0,0,1,0-1.52,1.26,1.26,0,0,1,.49-.53,1.35,1.35,0,0,1,1.38,0,1.26,1.26,0,0,1,.49.53,1.62,1.62,0,0,1,0,1.52Zm-.42-1.28a.86.86,0,0,0-.32-.36.81.81,0,0,0-.88,0,.94.94,0,0,0-.32.36,1.28,1.28,0,0,0,0,1,.91.91,0,0,0,.32.35.81.81,0,0,0,.88,0,.84.84,0,0,0,.32-.35,1.28,1.28,0,0,0,0-1Z" style="fill:#bebfc5"/><path d="M14.42,51.08a.29.29,0,0,1,.07.18V52.7a1.22,1.22,0,0,1-.3.88,1.1,1.1,0,0,1-.84.31,1.06,1.06,0,0,1-.83-.31,1.22,1.22,0,0,1-.3-.88V51.26a.29.29,0,0,1,.07-.18.25.25,0,0,1,.18-.08.21.21,0,0,1,.17.08.24.24,0,0,1,.07.18V52.7c0,.48.22.71.64.71a.65.65,0,0,0,.48-.17A.78.78,0,0,0,14,52.7V51.26a.24.24,0,0,1,.07-.18.21.21,0,0,1,.17-.08A.25.25,0,0,1,14.42,51.08Z" style="fill:#bebfc5"/><path d="M16.8,51a.21.21,0,0,1,.1.18.26.26,0,0,1-.07.2.21.21,0,0,1-.15.07.33.33,0,0,1-.14,0l-.17,0a.52.52,0,0,0-.32.11.87.87,0,0,0-.24.32,1,1,0,0,0-.1.46v1.3a.26.26,0,0,1-.07.19.23.23,0,0,1-.18.07.21.21,0,0,1-.17-.07.25.25,0,0,1-.07-.19V51.26a.24.24,0,0,1,.07-.18.23.23,0,0,1,.17-.08.23.23,0,0,1,.18.08.24.24,0,0,1,.07.18v.28a1,1,0,0,1,.34-.43.87.87,0,0,1,.52-.17A.35.35,0,0,1,16.8,51Z" style="fill:#bebfc5"/><path d="M20.64,51.07a.4.4,0,0,1,.27.35.28.28,0,0,1-.05.16.19.19,0,0,1-.15.08l-.1,0a.59.59,0,0,1-.11-.08l-.1-.07-.17-.06-.21,0a1,1,0,0,0-.48.13,1,1,0,0,0-.32.36,1.27,1.27,0,0,0-.11.52,1.19,1.19,0,0,0,.11.51,1,1,0,0,0,.31.36.82.82,0,0,0,.46.13.93.93,0,0,0,.44-.09l.1-.07a.24.24,0,0,1,.09-.06s.05,0,.09,0a.2.2,0,0,1,.16.06.28.28,0,0,1,.06.18.28.28,0,0,1-.13.22,1.07,1.07,0,0,1-.37.19,1.93,1.93,0,0,1-.49.07,1.27,1.27,0,0,1-.7-.2,1.2,1.2,0,0,1-.46-.53,1.68,1.68,0,0,1-.16-.75,1.73,1.73,0,0,1,.17-.76A1.28,1.28,0,0,1,20,50.94,1.53,1.53,0,0,1,20.64,51.07Z" style="fill:#bebfc5"/><path d="M23.81,51a.24.24,0,0,1,.07.19v2.35a.26.26,0,0,1-.07.19.21.21,0,0,1-.17.07.23.23,0,0,1-.18-.07.29.29,0,0,1-.07-.19v-.14a1.11,1.11,0,0,1-.86.46,1.17,1.17,0,0,1-.64-.19,1.37,1.37,0,0,1-.45-.53,1.91,1.91,0,0,1,0-1.53,1.33,1.33,0,0,1,.44-.52,1.09,1.09,0,0,1,.63-.19,1.13,1.13,0,0,1,.51.12.93.93,0,0,1,.37.3v-.13a.29.29,0,0,1,.07-.19.23.23,0,0,1,.18-.08A.21.21,0,0,1,23.81,51ZM23,53.29a.88.88,0,0,0,.3-.36,1.35,1.35,0,0,0,0-1,.77.77,0,0,0-.3-.36.71.71,0,0,0-.43-.14.8.8,0,0,0-.43.13.94.94,0,0,0-.29.36,1.21,1.21,0,0,0-.11.52,1.19,1.19,0,0,0,.11.51.94.94,0,0,0,.29.36.73.73,0,0,0,.43.13A.71.71,0,0,0,23,53.29Z" style="fill:#bebfc5"/><path d="M26.19,51a.21.21,0,0,1,.1.18.3.3,0,0,1-.06.2.26.26,0,0,1-.16.07.33.33,0,0,1-.14,0l-.17,0a.47.47,0,0,0-.31.11.89.89,0,0,0-.25.32,1.15,1.15,0,0,0-.1.46v1.3a.26.26,0,0,1-.07.19.21.21,0,0,1-.17.07.21.21,0,0,1-.18-.07.29.29,0,0,1-.07-.19V51.26a.29.29,0,0,1,.07-.18.25.25,0,0,1,.18-.08.21.21,0,0,1,.17.08.24.24,0,0,1,.07.18v.28a1,1,0,0,1,.34-.43.9.9,0,0,1,.52-.17A.35.35,0,0,1,26.19,51Z" style="fill:#bebfc5"/><path d="M27.48,51.51v1.61c0,.18.08.27.23.27a.2.2,0,0,0,.1,0l.1,0a.14.14,0,0,1,.11.06.25.25,0,0,1,.05.16.23.23,0,0,1-.12.19.48.48,0,0,1-.28.08,1.08,1.08,0,0,1-.32,0,.41.41,0,0,1-.25-.19.83.83,0,0,1-.11-.47V51.51h-.3a.24.24,0,0,1-.23-.24.21.21,0,0,1,.07-.17.22.22,0,0,1,.16-.07H27v-.45a.26.26,0,0,1,.07-.19.24.24,0,0,1,.18-.07.22.22,0,0,1,.17.07.26.26,0,0,1,.07.19V51h.43a.24.24,0,0,1,.16.07.26.26,0,0,1,.07.17.24.24,0,0,1-.07.17.24.24,0,0,1-.16.07Z" style="fill:#bebfc5"/><path d="M30.14,50.56a.24.24,0,0,1-.06-.18v-.09c0-.09,0-.15.07-.18a.33.33,0,0,1,.21-.06.29.29,0,0,1,.21.06.21.21,0,0,1,.07.18v.09a.23.23,0,0,1-.07.18.33.33,0,0,1-.21.06A.34.34,0,0,1,30.14,50.56Zm.4,3.21a.27.27,0,0,1-.36,0,.31.31,0,0,1-.06-.19V51.23a.28.28,0,0,1,.06-.18.24.24,0,0,1,.36,0,.29.29,0,0,1,.07.18v2.35A.32.32,0,0,1,30.54,53.77Z" style="fill:#bebfc5"/><path d="M31.11,53.25a.22.22,0,0,1,.11-.18.17.17,0,0,1,.12,0,.25.25,0,0,1,.17.08,1.07,1.07,0,0,0,.33.28.94.94,0,0,0,.43.09.68.68,0,0,0,.35-.1.31.31,0,0,0,.15-.29.33.33,0,0,0-.16-.28,2.18,2.18,0,0,0-.44-.18,2.37,2.37,0,0,1-.48-.17.83.83,0,0,1-.33-.26.69.69,0,0,1-.13-.45.68.68,0,0,1,.13-.42.9.9,0,0,1,.35-.29,1.12,1.12,0,0,1,.48-.1,1.47,1.47,0,0,1,.5.09,1.08,1.08,0,0,1,.4.3.25.25,0,0,1,.06.16.27.27,0,0,1-.08.17.21.21,0,0,1-.13.05.18.18,0,0,1-.15-.07.76.76,0,0,0-.27-.2.81.81,0,0,0-.35-.07.67.67,0,0,0-.33.08.32.32,0,0,0-.14.29.31.31,0,0,0,.16.28,2.1,2.1,0,0,0,.47.18,2.56,2.56,0,0,1,.45.16,1,1,0,0,1,.31.26.83.83,0,0,1,0,.89.94.94,0,0,1-.36.29,1.29,1.29,0,0,1-.48.1,1.46,1.46,0,0,1-.6-.12,1.15,1.15,0,0,1-.47-.38A.3.3,0,0,1,31.11,53.25Z" style="fill:#bebfc5"/><path d="M37.51,52.48a.28.28,0,0,1-.17.07H35.52a.93.93,0,0,0,.29.63.84.84,0,0,0,.61.24.92.92,0,0,0,.4-.08.88.88,0,0,0,.27-.19.37.37,0,0,1,.15,0,.2.2,0,0,1,.15.06.25.25,0,0,1,.06.16.26.26,0,0,1-.1.2,1.08,1.08,0,0,1-.4.27,1.3,1.3,0,0,1-.51.11,1.35,1.35,0,0,1-.73-.19,1.21,1.21,0,0,1-.49-.51,1.54,1.54,0,0,1-.18-.75,1.71,1.71,0,0,1,.18-.8,1.36,1.36,0,0,1,.47-.53,1.21,1.21,0,0,1,.63-.18,1.23,1.23,0,0,1,.62.17,1.31,1.31,0,0,1,.46.5,1.49,1.49,0,0,1,.19.7A.27.27,0,0,1,37.51,52.48Zm-1.69-.9a.85.85,0,0,0-.28.53h1.52v0a.66.66,0,0,0-.24-.47.73.73,0,0,0-.5-.19A.8.8,0,0,0,35.82,51.58Z" style="fill:#bebfc5"/><path d="M42.16,52.13v1.45a.29.29,0,0,1-.06.19.27.27,0,0,1-.36,0,.32.32,0,0,1-.07-.19V52.14c0-.47-.19-.71-.57-.71a.74.74,0,0,0-.36.09.69.69,0,0,0-.25.26.74.74,0,0,0-.09.36v1.44a.32.32,0,0,1-.07.19.27.27,0,0,1-.36,0,.29.29,0,0,1-.06-.19V52.13a1,1,0,0,0-.13-.51.48.48,0,0,0-.43-.19.71.71,0,0,0-.51.2.72.72,0,0,0-.2.5v1.45a.31.31,0,0,1-.06.19.24.24,0,0,1-.18.07.23.23,0,0,1-.18-.07.29.29,0,0,1-.07-.19V51.26a.29.29,0,0,1,.07-.18.24.24,0,0,1,.36,0,.28.28,0,0,1,.06.18v.19A1.1,1.1,0,0,1,39,51.1a.88.88,0,0,1,.49-.15.79.79,0,0,1,.83.6,1.22,1.22,0,0,1,.38-.41.92.92,0,0,1,.56-.19C41.86,51,42.16,51.35,42.16,52.13Z" style="fill:#bebfc5"/><path d="M44.89,51.14a1.27,1.27,0,0,1,.45.52,1.73,1.73,0,0,1,.16.76,1.7,1.7,0,0,1-.16.76,1.27,1.27,0,0,1-.45.52,1.08,1.08,0,0,1-.62.19,1.13,1.13,0,0,1-.51-.12,1.27,1.27,0,0,1-.37-.31v1.21a.29.29,0,0,1-.07.18.25.25,0,0,1-.18.08.21.21,0,0,1-.17-.08.23.23,0,0,1-.07-.18V51.26a.29.29,0,0,1,.06-.19.24.24,0,0,1,.36,0,.29.29,0,0,1,.07.19v.15a1.11,1.11,0,0,1,.87-.46A1.09,1.09,0,0,1,44.89,51.14Zm-.26,2.14a.77.77,0,0,0,.29-.35,1.24,1.24,0,0,0,0-1,.83.83,0,0,0-.29-.35.73.73,0,0,0-.43-.13.76.76,0,0,0-.44.13.84.84,0,0,0-.29.35,1.24,1.24,0,0,0,0,1,.94.94,0,0,0,.29.36.83.83,0,0,0,.44.12A.73.73,0,0,0,44.63,53.28Z" style="fill:#bebfc5"/><path d="M46.8,51.51v1.61q0,.27.24.27a.18.18,0,0,0,.09,0l.1,0a.16.16,0,0,1,.12.06.25.25,0,0,1,0,.16.23.23,0,0,1-.12.19.46.46,0,0,1-.28.08,1,1,0,0,1-.31,0,.42.42,0,0,1-.26-.19.83.83,0,0,1-.11-.47V51.51H46a.24.24,0,0,1-.16-.07.25.25,0,0,1-.06-.17A.22.22,0,0,1,46,51h.3v-.45a.32.32,0,0,1,.07-.19.24.24,0,0,1,.18-.07.21.21,0,0,1,.17.07.26.26,0,0,1,.07.19V51h.43a.24.24,0,0,1,.23.24.21.21,0,0,1-.07.17.22.22,0,0,1-.16.07Z" style="fill:#bebfc5"/><path d="M50.23,51.05a.29.29,0,0,1,.07.18v2.35a1.31,1.31,0,0,1-.36,1,1.29,1.29,0,0,1-.94.34,1.64,1.64,0,0,1-.38,0,1.5,1.5,0,0,1-.3-.1.28.28,0,0,1-.19-.25.2.2,0,0,1,0-.07.37.37,0,0,1,.08-.14.17.17,0,0,1,.13,0h.08l.28.12a.88.88,0,0,0,.29.05c.54,0,.8-.29.8-.87v-.11a.87.87,0,0,1-.35.31,1.19,1.19,0,0,1-.51.11.84.84,0,0,1-.67-.29,1.13,1.13,0,0,1-.24-.75V51.23a.24.24,0,0,1,.07-.18.22.22,0,0,1,.18-.08.21.21,0,0,1,.17.08.24.24,0,0,1,.07.18v1.49a.78.78,0,0,0,.15.53.59.59,0,0,0,.46.17.64.64,0,0,0,.48-.2.66.66,0,0,0,.19-.5V51.23a.29.29,0,0,1,.07-.18.24.24,0,0,1,.36,0Z" style="fill:#bebfc5"/></svg>