<svg xmlns="http://www.w3.org/2000/svg" width="19.29" height="18.106" viewBox="0 0 19.29 18.106">
  <g id="fat" transform="translate(-872.003 -190.07)">
    <path id="Soustraction_1" data-name="Soustraction 1" d="M-255.772-278.877a7.952,7.952,0,0,1-7.5-5.322,6.143,6.143,0,0,0,1.389.159,6.283,6.283,0,0,0,.695-.039,6.137,6.137,0,0,0,5.361-5.255,6.11,6.11,0,0,0-1.707-5.11.693.693,0,0,1-.059-.054l-.862-.863.872-.872a2.544,2.544,0,0,1,1.81-.75,2.543,2.543,0,0,1,1.811.751l3.764,3.767c.023.023.048.048.076.071a7.939,7.939,0,0,1,2.219,6.64,7.97,7.97,0,0,1-6.965,6.827A8.28,8.28,0,0,1-255.772-278.877Z" transform="translate(1139.128 487.053)" fill="#ffc234"/>
    <path id="Tracé_105" data-name="Tracé 105" d="M882.437,197.48a5.24,5.24,0,1,1-8.958-4.344l.122-.121,2.449-2.449a1.689,1.689,0,0,1,2.39,0l2.484,2.486c.016.016.031.031.05.047A5.239,5.239,0,0,1,882.437,197.48Z" transform="translate(0 0)" fill="#ffc234"/>
  </g>
</svg>
