<svg xmlns="http://www.w3.org/2000/svg" width="20" height="20" viewBox="0 0 20 20">
  <path id="Soustraction_17" data-name="Soustraction 17" d="M4867,69h-8a6.007,6.007,0,0,1-6-6V55a6.007,6.007,0,0,1,6-6h8a6.007,6.007,0,0,1,6,6v8A6.007,6.007,0,0,1,4867,69Zm-6.107-9.737a.833.833,0,1,0,0,1.667h.354a.833.833,0,0,0,0-1.667Zm-3.859,0a.833.833,0,0,0,0,1.667h.354a.833.833,0,0,0,0-1.667Zm0-4.211a.833.833,0,0,0,0,1.667h11.934a.833.833,0,1,0,0-1.667Z" transform="translate(-4853 -49)" fill="#45434d"/>
</svg>
