<svg xmlns="http://www.w3.org/2000/svg" width="19.338" height="12.364" viewBox="0 0 19.338 12.364">
  <path id="Tracé_182" data-name="Tracé 182" d="M36.375,33.022a1.5,1.5,0,0,0,.953-1.376V30.639a1.472,1.472,0,0,0-1.472-1.472H24.842a.374.374,0,0,0-.374.374h0a.612.612,0,0,1-.528.619.589.589,0,0,1-.649-.586v-.034a.374.374,0,0,0-.374-.374H19.461a1.472,1.472,0,0,0-1.472,1.472v1.007a1.5,1.5,0,0,0,.953,1.376,2.515,2.515,0,0,1,0,4.653,1.5,1.5,0,0,0-.953,1.376v1.007a1.472,1.472,0,0,0,1.472,1.472h3.456a.374.374,0,0,0,.374-.374h0a.612.612,0,0,1,.528-.619.589.589,0,0,1,.649.586v.033a.374.374,0,0,0,.374.374H35.855a1.472,1.472,0,0,0,1.472-1.472V39.052a1.5,1.5,0,0,0-.953-1.376,2.515,2.515,0,0,1,0-4.653ZM24.468,39.663a.589.589,0,0,1-1.177,0v-1.9a.589.589,0,1,1,1.177,0Zm0-3.363a.589.589,0,0,1-1.177,0V34.4a.589.589,0,1,1,1.177,0Zm0-3.363a.589.589,0,0,1-1.177,0v-1.9a.589.589,0,1,1,1.177,0Z" transform="translate(-17.989 -29.167)" fill="#45434d"/>
</svg>
