<svg version="1.1" id="Calque_1" xmlns="http://www.w3.org/2000/svg" xmlns:xlink="http://www.w3.org/1999/xlink" x="0px" y="0px"
	 viewBox="0 0 60 60" style="enable-background:new 0 0 60 60;" xml:space="preserve">
	<path fill="#bebfc5" d="M17.5,7h26C45.4,7,47,5.4,47,3.5S45.4,0,43.5,0h-26C15.6,0,14,1.6,14,3.5S15.6,7,17.5,7z"/>
	<path fill="#bebfc5" d="M9.5,20h42c2.5,0,4.5-2,4.5-4.5S54,11,51.5,11h-42C7,11,5,13,5,15.5S7,20,9.5,20z"/>
	<path fill="#bebfc5" d="M53,24H7c-3.9,0-7,3.1-7,7v22c0,3.9,3.1,7,7,7h46c3.9,0,7-3.1,7-7V31C60,27.1,56.9,24,53,24z"/>
</svg>
