<svg width="60" height="60" viewBox="0 0 60 60" fill="none" xmlns="http://www.w3.org/2000/svg">
<rect width="60" height="60" rx="15" fill="#FF5F50" fill-opacity="0.15"/>
<path d="M15 24.6C15 21.2397 15 19.5595 15.654 18.2761C16.2292 17.1471 17.1471 16.2292 18.2761 15.654C19.5595 15 21.2397 15 24.6 15H30V45H24.6C21.2397 45 19.5595 45 18.2761 44.346C17.1471 43.7708 16.2292 42.8529 15.654 41.7239C15 40.4405 15 38.7603 15 35.4V24.6Z" fill="#FF5F50"/>
<path d="M30 15H35.4C38.7603 15 40.4405 15 41.7239 15.654C42.8529 16.2292 43.7708 17.1471 44.346 18.2761C45 19.5595 45 21.2397 45 24.6V30H30V15Z" fill="#FF5F50" fill-opacity="0.3"/>
<path d="M45 30L45 35.4C45 38.7603 45 40.4405 44.346 41.7239C43.7708 42.8529 42.8529 43.7708 41.7239 44.346C40.4405 45 38.7603 45 35.4 45L30 45L30 30L45 30Z" fill="#FF5F50" fill-opacity="0.15"/>
</svg>
