<svg xmlns="http://www.w3.org/2000/svg" width="9" height="9" viewBox="0 0 9 9">
  <path id="star" d="M102.357,398.119l-1.057-.289a1.211,1.211,0,0,0-1.09.234l-.84.7a1.2,1.2,0,0,1-1.968-.854l-.048-1.082a1.18,1.18,0,0,0-.562-.951l-.93-.574a1.177,1.177,0,0,1,.215-2.111l1.027-.38a1.189,1.189,0,0,0,.743-.822l.266-1.05a1.2,1.2,0,0,1,2.1-.451l.683.847a1.206,1.206,0,0,0,1.021.443l1.094-.075a1.184,1.184,0,0,1,1.084,1.833l-.605.9a1.17,1.17,0,0,0-.112,1.1l.411,1A1.189,1.189,0,0,1,102.357,398.119Z" transform="translate(-95.296 -390.039)"/>
</svg>
