<svg xmlns="http://www.w3.org/2000/svg" width="11.014" height="13.39" viewBox="0 0 11.014 13.39">
  <g id="trash" transform="translate(-634.56 -1543.414)">
    <path id="Union_5" data-name="Union 5" d="M2.786,13.39a2,2,0,0,1-2-2V4.923a2,2,0,0,1,2-2h5.28a2,2,0,0,1,2,2V11.39a2,2,0,0,1-2,2Zm-2-11.128A.773.773,0,0,1,0,1.508.773.773,0,0,1,.787.754H2.753L3.312.219A.811.811,0,0,1,3.863,0H7.151A.812.812,0,0,1,7.7.219L8.26.754h1.967a.774.774,0,0,1,.787.754.774.774,0,0,1-.787.754Z" transform="translate(634.56 1543.414)" fill="#ff5656"/>
  </g>
</svg>
